HIERARCHY
ROOT Hips
{
	OFFSET -3.958830 18.904000 13.208200
	CHANNELS 6 Xposition Yposition Zposition Zrotation Yrotation Xrotation 
	JOINT LHipJoint
	{
		OFFSET 0.000000 0.000000 0.000000
		CHANNELS 3 Zrotation Yrotation Xrotation
		JOINT LeftUpLeg
		{
			OFFSET 1.800000 -1.400000 0.085000
			CHANNELS 3 Zrotation Yrotation Xrotation
			JOINT LeftLeg
			{
				OFFSET 2.215000 -6.000000 0.000000
				CHANNELS 3 Zrotation Yrotation Xrotation
				JOINT LeftFoot
				{
					OFFSET 2.500000 -6.900000 0.000000
					CHANNELS 3 Zrotation Yrotation Xrotation
					JOINT LeftToeBase
					{
						OFFSET 0.200000 -0.500000 1.950000
						CHANNELS 3 Zrotation Yrotation Xrotation
						End Site
						{
							OFFSET 0.000000 0.000000 0.000000
						}
					}
				}
			}
		}
	}
	JOINT RHipJoint
	{
		OFFSET 0.000000 0.000000 0.000000
		CHANNELS 3 Zrotation Yrotation Xrotation
		JOINT RightUpLeg
		{
			OFFSET -1.800000 -1.400000 0.085000
			CHANNELS 3 Zrotation Yrotation Xrotation
			JOINT RightLeg
			{
				OFFSET -2.215000 -6.000000 0.000000
				CHANNELS 3 Zrotation Yrotation Xrotation
				JOINT RightFoot
				{
					OFFSET -2.500000 -6.900000 0.000000
					CHANNELS 3 Zrotation Yrotation Xrotation
					JOINT RightToeBase
					{
						OFFSET -0.200000 -0.500000 1.950000
						CHANNELS 3 Zrotation Yrotation Xrotation
						End Site
						{
							OFFSET 0.000000 0.000000 0.000000
						}
					}
				}
			}
		}
	}
	JOINT LowerBack
	{
		OFFSET 0.000000 0.000000 0.000000
		CHANNELS 3 Zrotation Yrotation Xrotation
		JOINT Spine
		{
			OFFSET -0.087000 1.940000 -0.288900
			CHANNELS 3 Zrotation Yrotation Xrotation
			JOINT Spine1
			{
				OFFSET 0.000000 1.950000 0.060000
				CHANNELS 3 Zrotation Yrotation Xrotation
				JOINT Neck
				{
					OFFSET 0.000000 0.000000 0.000000
					CHANNELS 3 Zrotation Yrotation Xrotation
					JOINT Neck1
					{
						OFFSET 0.000000 1.600000 0.340000
						CHANNELS 3 Zrotation Yrotation Xrotation
						JOINT Head
						{
							OFFSET 0.000000 1.667000 -0.240000
							CHANNELS 3 Zrotation Yrotation Xrotation
							End Site
							{
								OFFSET 0.000000 0.000000 0.000000
							}
						}
					}
				}
				JOINT LeftShoulder
				{
					OFFSET 0.000000 0.000000 0.000000
					CHANNELS 3 Zrotation Yrotation Xrotation
					JOINT LeftArm
					{
						OFFSET 2.700000 1.550000 -0.730000
						CHANNELS 3 Zrotation Yrotation Xrotation
						JOINT LeftForeArm
						{
							OFFSET 5.450000 0.000000 0.000000
							CHANNELS 3 Zrotation Yrotation Xrotation
							JOINT LeftHand
							{
								OFFSET 3.450000 0.000000 0.000000
								CHANNELS 3 Zrotation Yrotation Xrotation
								JOINT LeftHandIndex1
								{
									OFFSET 0.750000 0.000000 0.000000
									CHANNELS 3 Zrotation Yrotation Xrotation
									End Site
									{
										OFFSET 0.000000 0.000000 0.000000
									}
								}
							}
						}
					}
				}
				JOINT RightShoulder
				{
					OFFSET 0.000000 0.000000 0.000000
					CHANNELS 3 Zrotation Yrotation Xrotation
					JOINT RightArm
					{
						OFFSET -2.700000 1.550000 -0.730000
						CHANNELS 3 Zrotation Yrotation Xrotation
						JOINT RightForeArm
						{
							OFFSET -5.450000 0.000000 0.000000
							CHANNELS 3 Zrotation Yrotation Xrotation
							JOINT RightHand
							{
								OFFSET -3.450000 0.000000 0.000000
								CHANNELS 3 Zrotation Yrotation Xrotation
								JOINT RightHandIndex1
								{
									OFFSET -0.750000 0.000000 0.000000
									CHANNELS 3 Zrotation Yrotation Xrotation
									End Site
									{
										OFFSET 0.000000 0.000000 0.000000
									}
								}
							}
						}
					}
				}
			}
		}
	}
}
MOTION
Frames: 7
Frame Time: 0.016667
-0.073990 17.376980 0.165630 -1.109805 6.019925 5.638944 -15.172921 13.069180 3.234943 11.141588 -3.357237 -21.525914 -12.225759 9.508076 22.829060 -0.349837 6.034455 2.610249 0.020930 -0.483000 0.083300 18.208703 -10.891175 2.282495 -19.798737 0.563737 -21.940742 7.156829 -6.861668 18.268171 0.170268 -4.072257 3.118286 -0.172980 0.662040 0.223280 -3.590074 -1.655165 -7.114351 7.573781 -1.879406 6.263810 -3.563732 -1.580847 5.335006 2.435285 -1.583325 -6.627291 -4.279237 1.971431 32.029766 -6.283860 2.683490 5.631730 -16.745412 4.437043 -0.167564 -50.330343 1.642832 -7.507628 -16.639348 -25.475963 1.341930 -4.081666 2.950263 0.322680 0.484380 -0.432060 0.186420 12.049388 -3.685036 4.624165 58.984700 -6.341707 -11.483505 62.442279 53.899655 23.983414 2.001245 -1.966499 -0.409870 0.174830 0.146520 -0.185360 
-0.067030 17.384790 0.166290 -1.025665 6.985864 5.588518 -15.180900 13.080110 3.243843 10.897601 -3.418645 -21.724322 -11.909162 9.385642 22.901395 -0.375894 5.968911 2.639772 -0.006020 -0.499980 0.068660 18.189684 -10.934818 2.276667 -19.731782 0.509956 -21.527316 7.078914 -6.829624 18.123627 0.176021 -4.050144 3.140370 -0.177720 0.667900 0.185420 -3.568794 -1.616349 -7.141052 7.266660 -1.678150 6.613164 -3.284379 -1.379491 5.149629 2.502115 -1.116320 -6.675859 -3.492491 1.330560 32.287679 -6.092120 2.208770 5.397850 -16.887302 4.512138 -0.179296 -50.003969 2.125352 -7.812728 -17.495646 -26.649985 1.682018 -4.064705 2.912706 0.337870 0.473690 -0.436120 0.178260 12.099639 -4.010022 4.755148 58.793862 -7.157168 -11.754194 64.203178 54.938865 25.324012 2.008362 -1.932157 -0.438920 0.215070 0.159300 -0.188890 
-0.042680 17.399250 0.163980 -1.406204 9.127770 5.288335 -15.158793 13.070943 3.255810 10.811981 -3.543625 -22.194210 -11.144794 9.118236 23.336224 -0.458051 5.874097 2.643151 0.040700 -0.470980 0.119760 18.192325 -11.054924 2.249697 -19.005647 0.447909 -20.350327 6.885261 -6.746476 17.774428 0.140866 -4.003316 3.152301 -0.154730 0.603730 0.177490 -3.652056 -1.433536 -7.171457 7.987499 -1.463947 7.218351 -3.169626 -1.102372 5.328496 2.716790 -0.354522 -6.720370 -2.250168 -0.214447 32.875974 -6.066700 0.957730 3.685370 -16.665955 4.850706 -0.257585 -50.512364 2.521702 -8.636966 -18.062350 -30.378528 2.261745 -3.989949 2.920225 0.411410 0.420620 -0.395610 0.168740 11.434759 -4.850076 4.955772 58.931576 -8.194301 -12.138015 67.564522 56.729136 27.934254 1.998946 -1.923525 -0.449160 0.220480 0.146720 -0.224360 
-0.019680 17.419650 0.154140 -1.613538 11.321719 5.155839 -15.160810 13.056722 3.269663 10.753203 -3.596289 -22.571557 -10.699415 8.834144 23.074553 -0.545880 5.755702 2.669053 0.047300 -0.473340 0.148060 18.179010 -11.158085 2.210905 -18.320811 0.406076 -19.546746 6.345655 -6.615962 17.738960 0.140777 -3.958057 3.177408 -0.138500 0.579420 0.157750 -3.678049 -1.272918 -7.173849 8.180565 -1.039410 7.760348 -2.540630 -0.662757 5.364328 2.855966 0.601775 -6.477593 -0.627645 -1.891631 32.981655 -6.204010 -0.185760 2.481540 -16.558997 5.909086 -0.598875 -50.268938 3.068958 -9.043078 -21.227712 -34.552254 3.811483 -3.963968 2.926086 0.450970 0.404360 -0.389110 0.143630 11.111193 -6.510748 4.924495 58.392012 -9.721458 -12.131369 73.816192 59.023064 32.710565 2.011660 -1.887703 -0.476910 0.248020 0.159210 -0.255370 
0.015460 17.435730 0.138180 -1.891303 13.942954 5.051586 -15.167959 12.996736 3.273252 10.695035 -3.673564 -23.136080 -10.362958 8.602749 22.906650 -0.597286 5.650219 2.701445 0.086180 -0.423460 0.163150 18.180009 -11.235462 2.154350 -17.739263 0.339516 -18.734032 5.980468 -6.560104 17.857024 0.123978 -3.984284 3.177804 -0.099840 0.572190 0.157100 -3.723033 -1.094331 -7.112360 8.375684 -0.521759 7.727044 -1.649103 -0.205940 6.143409 2.765193 1.542354 -6.191664 0.933839 -3.707988 32.578532 -6.104450 -1.605630 1.707060 -16.255528 6.704302 -0.755186 -49.844451 3.407536 -9.170901 -26.525327 -38.825645 6.368566 -3.935532 3.010365 0.450370 0.404030 -0.384860 0.156310 11.074661 -7.966187 4.804765 57.682300 -11.346722 -12.444923 80.050104 61.706881 37.856730 2.046115 -1.860776 -0.473420 0.263020 0.145170 -0.255370 
0.069860 17.450800 0.114740 -2.123935 16.812026 4.863310 -15.162192 12.907119 3.262787 10.429581 -3.764241 -23.574866 -10.108944 8.383846 22.748122 -0.661615 5.516922 2.729526 0.151470 -0.326460 0.202590 18.197160 -11.308904 2.115229 -17.638513 0.229820 -17.906521 6.012171 -6.639588 17.988584 0.086254 -4.066988 3.135835 -0.029370 0.528990 0.142650 -3.818786 -0.866550 -7.053916 8.937031 -0.138417 7.664106 -1.143632 0.103600 7.004324 2.838992 2.554001 -5.847566 2.662932 -5.420749 32.152259 -6.440630 -2.465450 0.313040 -16.283315 7.237335 -0.813815 -48.566662 4.088139 -9.060464 -33.397586 -42.674807 9.900836 -3.886002 3.107587 0.457020 0.385970 -0.360370 0.165350 11.046438 -9.301139 4.496792 56.919108 -12.269976 -12.698432 83.823898 64.621938 41.956996 2.109612 -1.787786 -0.469650 0.274640 0.110670 -0.264580 
0.128560 17.459100 0.090840 -2.012900 19.499288 4.954744 -15.175579 12.798541 3.236984 9.869304 -3.850844 -23.743817 -10.125548 8.195019 22.251584 -0.715046 5.392419 2.773332 0.207220 -0.248610 0.245320 18.200310 -11.364882 2.087270 -18.088371 0.128497 -17.450794 6.320299 -6.861283 18.375759 0.058036 -4.209743 3.075315 0.033870 0.514720 0.138920 -3.852549 -0.623841 -6.968097 8.595515 0.504455 7.292648 -0.472674 0.579671 7.756615 2.943032 3.837877 -5.512764 4.915655 -7.385733 31.394293 -6.717050 -3.435640 -0.575420 -16.202100 7.648821 -0.758946 -46.659958 4.786838 -8.464437 -41.654965 -46.605704 14.791319 -3.872684 3.204084 0.444430 0.393810 -0.351260 0.173340 10.942984 -10.594791 4.063399 56.013570 -12.633308 -12.531794 84.516759 67.062821 43.958017 2.159688 -1.704787 -0.466950 0.295140 0.082660 -0.270000 
